<mxfile host="app.diagrams.net" agent="Mozilla/5.0 (Windows NT 10.0; Win64; x64) AppleWebKit/537.36 (KHTML, like Gecko) Chrome/131.0.0.0 Safari/537.36" version="26.0.6">
  <diagram name="Page-1" id="16e2658f-23c8-b752-8be9-c03fbebb8bbe">
    <mxGraphModel dx="1557" dy="2063" grid="1" gridSize="10" guides="1" tooltips="1" connect="1" arrows="1" fold="1" page="1" pageScale="1" pageWidth="1100" pageHeight="850" background="none" math="0" shadow="0">
      <root>
        <mxCell id="0" />
        <mxCell id="1" parent="0" />
        <mxCell id="_wNBP5k8iPZeeVGmY4Q7-6" value="" style="endArrow=none;html=1;rounded=0;entryX=0.697;entryY=0.999;entryDx=0;entryDy=0;strokeWidth=5;entryPerimeter=0;exitX=0.305;exitY=0.997;exitDx=0;exitDy=0;exitPerimeter=0;" edge="1" parent="1" source="_wNBP5k8iPZeeVGmY4Q7-2" target="_wNBP5k8iPZeeVGmY4Q7-1">
          <mxGeometry width="50" height="50" relative="1" as="geometry">
            <mxPoint x="1074.1999999999998" y="282.23999999999995" as="sourcePoint" />
            <mxPoint x="714.52" y="280.00000000000006" as="targetPoint" />
            <Array as="points">
              <mxPoint x="1075.48" y="406.12" />
              <mxPoint x="715.48" y="406.12" />
            </Array>
          </mxGeometry>
        </mxCell>
        <mxCell id="_wNBP5k8iPZeeVGmY4Q7-15" value="&lt;h1 style=&quot;box-sizing: border-box; margin: 4px 0px 0px; font-size: 24px; font-family: &amp;quot;Source Sans Pro&amp;quot;, sans-serif; line-height: 1; color: rgb(69, 69, 69); padding-bottom: 15px; width: 709.656px; letter-spacing: 0.25px; text-transform: uppercase;&quot; class=&quot;product-title&quot;&gt;220V/32A&lt;/h1&gt;&lt;h1 style=&quot;box-sizing: border-box; margin: 4px 0px 0px; font-size: 24px; font-family: &amp;quot;Source Sans Pro&amp;quot;, sans-serif; line-height: 1; color: rgb(69, 69, 69); padding-bottom: 15px; width: 709.656px; letter-spacing: 0.25px; text-transform: uppercase;&quot; class=&quot;product-title&quot;&gt;Circuit&amp;nbsp;&lt;/h1&gt;&lt;h1 style=&quot;box-sizing: border-box; margin: 4px 0px 0px; font-size: 24px; font-family: &amp;quot;Source Sans Pro&amp;quot;, sans-serif; line-height: 1; color: rgb(69, 69, 69); padding-bottom: 15px; width: 709.656px; letter-spacing: 0.25px; text-transform: uppercase;&quot; class=&quot;product-title&quot;&gt;Breaker&lt;/h1&gt;" style="whiteSpace=wrap;html=1;aspect=fixed;rounded=1;align=center;movable=1;resizable=1;rotatable=1;deletable=1;editable=1;locked=0;connectable=1;" vertex="1" parent="1">
          <mxGeometry x="820" y="310" width="150" height="150" as="geometry" />
        </mxCell>
        <mxCell id="_wNBP5k8iPZeeVGmY4Q7-4" style="edgeStyle=orthogonalEdgeStyle;rounded=0;orthogonalLoop=1;jettySize=auto;html=1;exitX=0.784;exitY=0.999;exitDx=0;exitDy=0;endArrow=none;endFill=0;strokeColor=#FF0000;strokeWidth=5;exitPerimeter=0;entryX=-0.003;entryY=0.4;entryDx=0;entryDy=0;entryPerimeter=0;" edge="1" parent="1" source="_wNBP5k8iPZeeVGmY4Q7-1" target="_wNBP5k8iPZeeVGmY4Q7-15">
          <mxGeometry relative="1" as="geometry">
            <mxPoint x="820" y="370" as="targetPoint" />
            <Array as="points">
              <mxPoint x="740" y="370" />
            </Array>
          </mxGeometry>
        </mxCell>
        <mxCell id="_wNBP5k8iPZeeVGmY4Q7-41" style="edgeStyle=orthogonalEdgeStyle;rounded=0;orthogonalLoop=1;jettySize=auto;html=1;exitX=0.5;exitY=1;exitDx=0;exitDy=0;entryX=0.5;entryY=0;entryDx=0;entryDy=0;strokeWidth=5;strokeColor=#FF3333;endArrow=none;endFill=0;" edge="1" parent="1" source="_wNBP5k8iPZeeVGmY4Q7-1" target="_wNBP5k8iPZeeVGmY4Q7-34">
          <mxGeometry relative="1" as="geometry">
            <Array as="points">
              <mxPoint x="660" y="550" />
              <mxPoint x="260" y="550" />
            </Array>
          </mxGeometry>
        </mxCell>
        <mxCell id="_wNBP5k8iPZeeVGmY4Q7-42" style="edgeStyle=orthogonalEdgeStyle;rounded=0;orthogonalLoop=1;jettySize=auto;html=1;exitX=0.25;exitY=1;exitDx=0;exitDy=0;entryX=0.5;entryY=0;entryDx=0;entryDy=0;strokeWidth=5;endArrow=none;endFill=0;" edge="1" parent="1" source="_wNBP5k8iPZeeVGmY4Q7-1" target="_wNBP5k8iPZeeVGmY4Q7-32">
          <mxGeometry relative="1" as="geometry">
            <Array as="points">
              <mxPoint x="580" y="350" />
              <mxPoint x="580" y="470" />
              <mxPoint x="160" y="470" />
            </Array>
          </mxGeometry>
        </mxCell>
        <mxCell id="_wNBP5k8iPZeeVGmY4Q7-1" value="&lt;font style=&quot;font-size: 40px;&quot;&gt;Victron 100/50&lt;/font&gt;" style="whiteSpace=wrap;html=1;aspect=fixed;rounded=1;" vertex="1" parent="1">
          <mxGeometry x="520" y="70" width="280" height="280" as="geometry" />
        </mxCell>
        <mxCell id="_wNBP5k8iPZeeVGmY4Q7-2" value="&lt;font style=&quot;font-size: 40px;&quot;&gt;PV&lt;/font&gt;" style="whiteSpace=wrap;html=1;aspect=fixed;rounded=1;" vertex="1" parent="1">
          <mxGeometry x="990" y="70" width="280" height="280" as="geometry" />
        </mxCell>
        <mxCell id="_wNBP5k8iPZeeVGmY4Q7-11" style="edgeStyle=orthogonalEdgeStyle;rounded=0;orthogonalLoop=1;jettySize=auto;html=1;entryX=0.005;entryY=0.607;entryDx=0;entryDy=0;entryPerimeter=0;startArrow=classic;startFill=1;" edge="1" parent="1" source="_wNBP5k8iPZeeVGmY4Q7-9" target="_wNBP5k8iPZeeVGmY4Q7-1">
          <mxGeometry relative="1" as="geometry">
            <mxPoint x="500" y="240" as="targetPoint" />
            <Array as="points">
              <mxPoint x="460" y="240" />
            </Array>
          </mxGeometry>
        </mxCell>
        <mxCell id="_wNBP5k8iPZeeVGmY4Q7-9" value="&lt;font style=&quot;font-size: 30px;&quot;&gt;MPPT Display&lt;/font&gt;" style="whiteSpace=wrap;html=1;aspect=fixed;rounded=1;" vertex="1" parent="1">
          <mxGeometry x="350" y="70" width="150" height="150" as="geometry" />
        </mxCell>
        <mxCell id="_wNBP5k8iPZeeVGmY4Q7-10" value="&lt;font style=&quot;font-size: 30px;&quot;&gt;Shunt Display&lt;/font&gt;" style="whiteSpace=wrap;html=1;aspect=fixed;rounded=1;align=center;" vertex="1" parent="1">
          <mxGeometry x="190" y="70" width="150" height="150" as="geometry" />
        </mxCell>
        <mxCell id="_wNBP5k8iPZeeVGmY4Q7-17" style="edgeStyle=orthogonalEdgeStyle;rounded=0;orthogonalLoop=1;jettySize=auto;html=1;exitX=1.003;exitY=0.405;exitDx=0;exitDy=0;endArrow=none;endFill=0;strokeColor=#FF0000;strokeWidth=5;exitPerimeter=0;" edge="1" parent="1" source="_wNBP5k8iPZeeVGmY4Q7-15">
          <mxGeometry relative="1" as="geometry">
            <mxPoint x="1050" y="350" as="targetPoint" />
            <mxPoint x="1120" y="370" as="sourcePoint" />
            <Array as="points">
              <mxPoint x="972" y="371" />
              <mxPoint x="1050" y="370" />
            </Array>
          </mxGeometry>
        </mxCell>
        <mxCell id="_wNBP5k8iPZeeVGmY4Q7-52" style="edgeStyle=orthogonalEdgeStyle;rounded=0;orthogonalLoop=1;jettySize=auto;html=1;strokeColor=#FF3333;strokeWidth=5;endArrow=none;endFill=0;entryX=0.995;entryY=0.565;entryDx=0;entryDy=0;entryPerimeter=0;" edge="1" parent="1" source="_wNBP5k8iPZeeVGmY4Q7-18" target="_wNBP5k8iPZeeVGmY4Q7-21">
          <mxGeometry relative="1" as="geometry">
            <mxPoint x="480" y="1020" as="targetPoint" />
            <Array as="points">
              <mxPoint x="440" y="1020" />
            </Array>
          </mxGeometry>
        </mxCell>
        <mxCell id="_wNBP5k8iPZeeVGmY4Q7-18" value="&lt;font style=&quot;font-size: 40px;&quot;&gt;2Kw Inverter&lt;/font&gt;" style="whiteSpace=wrap;html=1;aspect=fixed;rounded=1;" vertex="1" parent="1">
          <mxGeometry x="530" y="870" width="280" height="280" as="geometry" />
        </mxCell>
        <mxCell id="_wNBP5k8iPZeeVGmY4Q7-20" value="&lt;span style=&quot;font-size: 30px;&quot;&gt;Manual Disconnect&lt;/span&gt;" style="whiteSpace=wrap;html=1;aspect=fixed;rounded=1;align=center;" vertex="1" parent="1">
          <mxGeometry x="630" y="630" width="150" height="150" as="geometry" />
        </mxCell>
        <mxCell id="_wNBP5k8iPZeeVGmY4Q7-28" style="edgeStyle=orthogonalEdgeStyle;rounded=0;orthogonalLoop=1;jettySize=auto;html=1;entryX=0;entryY=0.25;entryDx=0;entryDy=0;strokeWidth=5;strokeColor=#FF3333;endArrow=none;endFill=0;exitX=0.641;exitY=0.996;exitDx=0;exitDy=0;exitPerimeter=0;" edge="1" parent="1" source="_wNBP5k8iPZeeVGmY4Q7-34" target="_wNBP5k8iPZeeVGmY4Q7-26">
          <mxGeometry relative="1" as="geometry">
            <Array as="points">
              <mxPoint x="270" y="770" />
              <mxPoint x="270" y="1240" />
            </Array>
          </mxGeometry>
        </mxCell>
        <mxCell id="_wNBP5k8iPZeeVGmY4Q7-50" style="edgeStyle=orthogonalEdgeStyle;rounded=0;orthogonalLoop=1;jettySize=auto;html=1;exitX=0;exitY=0.5;exitDx=0;exitDy=0;entryX=0.25;entryY=1;entryDx=0;entryDy=0;" edge="1" parent="1" source="_wNBP5k8iPZeeVGmY4Q7-21" target="_wNBP5k8iPZeeVGmY4Q7-10">
          <mxGeometry relative="1" as="geometry">
            <Array as="points">
              <mxPoint x="100" y="1010" />
              <mxPoint x="100" y="290" />
              <mxPoint x="228" y="290" />
            </Array>
          </mxGeometry>
        </mxCell>
        <mxCell id="_wNBP5k8iPZeeVGmY4Q7-21" value="&lt;span style=&quot;font-size: 30px;&quot;&gt;Relay Disconnect&lt;/span&gt;" style="whiteSpace=wrap;html=1;aspect=fixed;rounded=1;align=center;" vertex="1" parent="1">
          <mxGeometry x="200" y="935" width="150" height="150" as="geometry" />
        </mxCell>
        <mxCell id="_wNBP5k8iPZeeVGmY4Q7-25" style="edgeStyle=orthogonalEdgeStyle;rounded=0;orthogonalLoop=1;jettySize=auto;html=1;endArrow=none;endFill=0;strokeColor=#FF0000;strokeWidth=5;entryX=0.25;entryY=1;entryDx=0;entryDy=0;" edge="1" parent="1" target="_wNBP5k8iPZeeVGmY4Q7-34">
          <mxGeometry relative="1" as="geometry">
            <mxPoint x="240" y="830" as="targetPoint" />
            <mxPoint x="240" y="935" as="sourcePoint" />
            <Array as="points" />
          </mxGeometry>
        </mxCell>
        <mxCell id="_wNBP5k8iPZeeVGmY4Q7-30" style="edgeStyle=orthogonalEdgeStyle;rounded=0;orthogonalLoop=1;jettySize=auto;html=1;strokeWidth=5;endArrow=none;endFill=0;entryX=0.25;entryY=1;entryDx=0;entryDy=0;" edge="1" parent="1" source="_wNBP5k8iPZeeVGmY4Q7-26" target="_wNBP5k8iPZeeVGmY4Q7-32">
          <mxGeometry relative="1" as="geometry">
            <mxPoint x="430" y="1109.9999999999998" as="targetPoint" />
            <Array as="points">
              <mxPoint x="140" y="1310" />
            </Array>
          </mxGeometry>
        </mxCell>
        <mxCell id="_wNBP5k8iPZeeVGmY4Q7-26" value="&lt;font style=&quot;font-size: 40px;&quot;&gt;12v Ouputs&lt;/font&gt;" style="whiteSpace=wrap;html=1;aspect=fixed;rounded=1;" vertex="1" parent="1">
          <mxGeometry x="530" y="1170" width="280" height="280" as="geometry" />
        </mxCell>
        <mxCell id="_wNBP5k8iPZeeVGmY4Q7-31" value="&lt;font style=&quot;font-size: 40px;&quot;&gt;Batteries&lt;/font&gt;&lt;div&gt;&lt;font style=&quot;font-size: 40px;&quot;&gt;&lt;br&gt;&lt;/font&gt;&lt;/div&gt;" style="whiteSpace=wrap;html=1;aspect=fixed;rounded=1;" vertex="1" parent="1">
          <mxGeometry x="810" y="570" width="280" height="280" as="geometry" />
        </mxCell>
        <mxCell id="_wNBP5k8iPZeeVGmY4Q7-40" style="edgeStyle=orthogonalEdgeStyle;rounded=0;orthogonalLoop=1;jettySize=auto;html=1;strokeWidth=5;endArrow=none;endFill=0;exitX=0.75;exitY=1;exitDx=0;exitDy=0;" edge="1" parent="1" source="_wNBP5k8iPZeeVGmY4Q7-19">
          <mxGeometry relative="1" as="geometry">
            <mxPoint x="190" y="801" as="sourcePoint" />
            <mxPoint x="410" y="800" as="targetPoint" />
            <Array as="points">
              <mxPoint x="472" y="790" />
              <mxPoint x="400" y="790" />
              <mxPoint x="400" y="800" />
            </Array>
          </mxGeometry>
        </mxCell>
        <mxCell id="_wNBP5k8iPZeeVGmY4Q7-32" value="&lt;span style=&quot;font-size: 30px;&quot;&gt;-ve&lt;/span&gt;" style="whiteSpace=wrap;html=1;aspect=fixed;rounded=1;align=center;" vertex="1" parent="1">
          <mxGeometry x="120" y="690" width="80" height="80" as="geometry" />
        </mxCell>
        <mxCell id="_wNBP5k8iPZeeVGmY4Q7-34" value="&lt;span style=&quot;font-size: 30px;&quot;&gt;+ve&lt;/span&gt;" style="whiteSpace=wrap;html=1;aspect=fixed;rounded=1;align=center;" vertex="1" parent="1">
          <mxGeometry x="220" y="690" width="80" height="80" as="geometry" />
        </mxCell>
        <mxCell id="_wNBP5k8iPZeeVGmY4Q7-35" value="" style="endArrow=none;html=1;rounded=0;strokeWidth=5;exitX=-0.003;exitY=0.854;exitDx=0;exitDy=0;exitPerimeter=0;entryX=0.648;entryY=0.994;entryDx=0;entryDy=0;entryPerimeter=0;" edge="1" parent="1" source="_wNBP5k8iPZeeVGmY4Q7-18" target="_wNBP5k8iPZeeVGmY4Q7-32">
          <mxGeometry width="50" height="50" relative="1" as="geometry">
            <mxPoint x="440" y="1111.08" as="sourcePoint" />
            <mxPoint x="170" y="830" as="targetPoint" />
            <Array as="points">
              <mxPoint x="170" y="1110" />
            </Array>
          </mxGeometry>
        </mxCell>
        <mxCell id="_wNBP5k8iPZeeVGmY4Q7-38" style="edgeStyle=orthogonalEdgeStyle;rounded=0;orthogonalLoop=1;jettySize=auto;html=1;entryX=0;entryY=0.482;entryDx=0;entryDy=0;entryPerimeter=0;strokeWidth=5;strokeColor=#FF3333;endArrow=none;endFill=0;" edge="1" parent="1">
          <mxGeometry relative="1" as="geometry">
            <mxPoint x="780" y="709.62" as="sourcePoint" />
            <mxPoint x="810" y="709.58" as="targetPoint" />
          </mxGeometry>
        </mxCell>
        <mxCell id="_wNBP5k8iPZeeVGmY4Q7-39" style="edgeStyle=orthogonalEdgeStyle;rounded=0;orthogonalLoop=1;jettySize=auto;html=1;endArrow=none;endFill=0;strokeWidth=5;strokeColor=#FF3333;" edge="1" parent="1">
          <mxGeometry relative="1" as="geometry">
            <mxPoint x="300" y="710" as="sourcePoint" />
            <mxPoint x="630" y="710" as="targetPoint" />
            <Array as="points">
              <mxPoint x="300" y="710" />
              <mxPoint x="630" y="710" />
            </Array>
          </mxGeometry>
        </mxCell>
        <mxCell id="_wNBP5k8iPZeeVGmY4Q7-45" value="" style="edgeStyle=orthogonalEdgeStyle;rounded=0;orthogonalLoop=1;jettySize=auto;html=1;strokeWidth=5;endArrow=none;endFill=0;" edge="1" parent="1" target="_wNBP5k8iPZeeVGmY4Q7-19">
          <mxGeometry relative="1" as="geometry">
            <mxPoint x="190" y="770" as="sourcePoint" />
            <mxPoint x="410" y="800" as="targetPoint" />
            <Array as="points">
              <mxPoint x="190" y="770" />
              <mxPoint x="190" y="805" />
            </Array>
          </mxGeometry>
        </mxCell>
        <mxCell id="_wNBP5k8iPZeeVGmY4Q7-47" style="edgeStyle=orthogonalEdgeStyle;rounded=0;orthogonalLoop=1;jettySize=auto;html=1;exitX=1;exitY=0.25;exitDx=0;exitDy=0;strokeColor=#FF3333;endArrow=none;endFill=0;strokeWidth=3;" edge="1" parent="1" source="_wNBP5k8iPZeeVGmY4Q7-19">
          <mxGeometry relative="1" as="geometry">
            <mxPoint x="579.9999999999998" y="710" as="targetPoint" />
          </mxGeometry>
        </mxCell>
        <mxCell id="_wNBP5k8iPZeeVGmY4Q7-49" style="edgeStyle=orthogonalEdgeStyle;rounded=0;orthogonalLoop=1;jettySize=auto;html=1;exitX=0.5;exitY=0;exitDx=0;exitDy=0;entryX=0.5;entryY=1;entryDx=0;entryDy=0;startArrow=classic;startFill=1;" edge="1" parent="1" source="_wNBP5k8iPZeeVGmY4Q7-19" target="_wNBP5k8iPZeeVGmY4Q7-10">
          <mxGeometry relative="1" as="geometry">
            <Array as="points">
              <mxPoint x="435" y="290" />
              <mxPoint x="265" y="290" />
            </Array>
          </mxGeometry>
        </mxCell>
        <mxCell id="_wNBP5k8iPZeeVGmY4Q7-19" value="&lt;font style=&quot;font-size: 30px;&quot;&gt;Smart&lt;/font&gt;&lt;div&gt;&lt;font style=&quot;font-size: 30px;&quot;&gt;Shunt&lt;/font&gt;&lt;/div&gt;" style="whiteSpace=wrap;html=1;aspect=fixed;rounded=1;align=center;" vertex="1" parent="1">
          <mxGeometry x="360" y="730" width="150" height="150" as="geometry" />
        </mxCell>
        <mxCell id="_wNBP5k8iPZeeVGmY4Q7-46" style="edgeStyle=orthogonalEdgeStyle;rounded=0;orthogonalLoop=1;jettySize=auto;html=1;entryX=-0.006;entryY=0.833;entryDx=0;entryDy=0;entryPerimeter=0;strokeWidth=5;endArrow=none;endFill=0;" edge="1" parent="1" source="_wNBP5k8iPZeeVGmY4Q7-19" target="_wNBP5k8iPZeeVGmY4Q7-31">
          <mxGeometry relative="1" as="geometry">
            <Array as="points">
              <mxPoint x="808" y="805" />
            </Array>
          </mxGeometry>
        </mxCell>
      </root>
    </mxGraphModel>
  </diagram>
</mxfile>
